<svg xmlns="http://www.w3.org/2000/svg" viewBox="0 0 128.26 123.47"><defs><style>.cls-1{fill:#e5be00;fill-rule:evenodd;}</style></defs><g id="Ebene_2" data-name="Ebene 2"><g id="Ebene_1-2" data-name="Ebene 1"><path class="cls-1" d="M1.29,11.81c.92,0,2.21-.37,3.69-.55a29.43,29.43,0,0,1,5.54.18,38.46,38.46,0,0,1,6.82,1.48,56.06,56.06,0,0,1,7,3.14A40.2,40.2,0,0,1,31,20.85a65.53,65.53,0,0,1,5.91,6.28c1.66,2.4,3.13,4.8,4.61,7.38a66.57,66.57,0,0,1,3,7.76,31.9,31.9,0,0,1,1.65,7.93,43.65,43.65,0,0,1-.92,15,43.53,43.53,0,0,1-1.84,6.28A38.7,38.7,0,0,1,41,76.22c-.56.93-1.1,1.85-1.1,1.85l-.57,9.78a30.64,30.64,0,0,0,61.28,0V66.44l-22.88.37V25.1h7.56V5.54L90.79,0l5.55,5.54V25.1h15.13V5.54L117,0l5.55,5.54V25.1h5.71V66.81l-22.88-.37V87.85a35.53,35.53,0,1,1-71.06,0v-9.6h-.18c-.93-.55-3.69-2.4-4.8-3.14-1.48-1.1-3.13-2.21-4.8-3.5-1.66-1.47-3.14-3-4.79-4.43a51.61,51.61,0,0,1-4.43-4.8c-1.48-1.84-2.77-3.5-4.07-5.35-1.1-1.85-2.21-3.69-3.14-5.54A48.52,48.52,0,0,1,3.69,39.68,32.73,32.73,0,0,1,2.4,33.77a35.27,35.27,0,0,1-.93-5.9,32.39,32.39,0,0,1-.55-5.72c-.18-1.85-.37-3.69-.55-5S.18,14.39,0,13.47V12.18s.55-.18,1.29-.37Z"></path></g></g></svg>